<svg id="Capa_1" enable-background="new 0 0 514.325 514.325" height="512" viewBox="0 0 514.325 514.325" width="512" xmlns="http://www.w3.org/2000/svg"><g><path d="m191.862 250.548c.936-5.077 4.009-9.518 8.43-12.185l6.343-3.826c3.547-2.139 4.688-6.749 2.548-10.296-2.139-3.547-6.748-4.687-10.296-2.548l-6.343 3.826c-8.094 4.882-13.719 13.013-15.434 22.308l-7.567 41.022c-3.313 17.952 7.996 35.35 25.747 39.609 2.686.645 5.378.955 8.034.954 14.128 0 27.189-8.768 32.225-22.568l7.98-21.871 11.274-3.042 36.168 28.714c1.379 1.095 3.024 1.626 4.658 1.626 2.209 0 4.398-.972 5.879-2.837 2.575-3.244 2.033-7.962-1.211-10.538l-27.49-21.825 7.83-2.113c3.999-1.079 6.366-5.196 5.287-9.195s-5.194-6.366-9.195-5.287l-40.866 11.027c-2.355.636-4.255 2.378-5.092 4.67l-9.314 25.527c-3.367 9.231-13.111 14.464-22.667 12.169-9.994-2.398-16.362-12.194-14.496-22.301z"/><path d="m352.219 188.716c-1.353 3.916.726 8.185 4.641 9.537 3.649 1.26 7.072 3.03 10.175 5.261l21.932 15.775c2.28 1.641 4.972 2.479 7.687 2.479 1.964 0 3.942-.439 5.785-1.332l22.988-11.262c3.72-1.823 5.258-6.315 3.436-10.035-1.823-3.719-6.314-5.257-10.035-3.436l-21.987 10.772-21.046-15.138c-4.286-3.083-9.009-5.527-14.037-7.263-3.924-1.351-8.188.727-9.539 4.642z"/><path d="m450.836 195.879c1.107 0 2.232-.246 3.294-.766l54.698-26.797c3.72-1.822 5.258-6.315 3.436-10.035-1.823-3.719-6.315-5.258-10.035-3.436l-54.698 26.797c-3.72 1.822-5.258 6.315-3.436 10.035 1.302 2.658 3.967 4.202 6.741 4.202z"/><path d="m5.321 165.227 105.391 55.121c.067.035.136.07.205.103 1.826.885 3.791 1.321 5.748 1.321 2.713 0 5.409-.839 7.694-2.482l21.93-15.774c3.349-2.408 7.037-4.27 10.964-5.534 3.943-1.27 6.11-5.495 4.842-9.438-1.27-3.943-5.496-6.109-9.438-4.841-5.418 1.744-10.507 4.313-15.127 7.635l-21.016 15.117-104.242-54.52c-3.667-1.919-8.202-.501-10.121 3.17-1.92 3.67-.501 8.202 3.17 10.122z"/><path d="m512.091 312.721c-2.007-3.625-6.569-4.938-10.194-2.931l-37.985 21.021c-1.819 1.007-3.14 2.725-3.645 4.743-2.951 11.809-9.829 22.479-19.365 30.044l-30.742 24.389c-2.035-4.15-4.985-7.829-8.717-10.791l-76.052-60.378c-3.243-2.574-7.962-2.033-10.537 1.21-2.575 3.244-2.033 7.962 1.211 10.538l76.052 60.378c3.49 2.771 5.679 6.736 6.163 11.166s-.797 8.774-3.605 12.233c-2.792 3.438-6.755 5.579-11.159 6.031-4.403.451-8.719-.84-12.15-3.638l-53.952-43.976c-3.217-2.611-7.939-2.121-10.551 1.094-2.611 3.215-2.121 7.938 1.094 10.55l43.97 35.837c5.832 5.846 6.564 15.113 1.467 21.85-2.759 3.647-6.778 5.958-11.317 6.508-4.538.553-8.994-.735-12.545-3.618l-43.592-35.404c-3.217-2.611-7.939-2.121-10.55 1.093-2.612 3.215-2.122 7.939 1.093 10.55l33.918 27.547c2.685 2.688 4.363 6.181 4.767 10.013.467 4.439-.825 8.792-3.639 12.256-5.799 7.137-16.32 8.226-23.455 2.431l-33.123-26.896c-3.22-2.612-7.94-2.119-10.55 1.097s-2.119 7.939 1.097 10.55l17.98 14.597c6.234 5.103 7.322 14.118 2.466 20.557-2.41 3.196-5.921 5.257-9.887 5.805-3.964.546-7.902-.485-11.089-2.909l-24.467-18.608c8.415-11.51 6.404-27.777-4.827-36.892-4.667-3.789-10.333-5.862-16.243-6.018 1.477-10.156-2.07-20.609-10.341-27.323-4.746-3.852-10.52-6.033-16.616-6.354.968-3.348 1.294-6.884.923-10.454-.757-7.28-4.304-13.831-10.044-18.489-5.691-4.619-12.843-6.742-20.128-5.977-3.593.377-7.005 1.436-10.096 3.092-1.663-5.624-4.979-10.825-9.878-14.8-6.233-5.06-14.066-7.385-22.046-6.543-7.984.84-15.159 4.742-20.203 10.988l-6.337 7.847c-8.199-6.336-14.639-14.723-18.634-24.289l-3.326-7.967c-.545-1.306-1.448-2.43-2.605-3.245l-36.985-26.02c-3.389-2.384-8.066-1.569-10.449 1.818-2.384 3.388-1.569 8.066 1.818 10.45l35.214 24.774 2.492 5.968c4.967 11.894 12.957 22.328 23.123 30.234-4.245 6.116-6.048 13.462-5.075 20.929 1.07 8.211 5.338 15.43 12.017 20.324 5.343 3.916 11.558 5.813 17.726 5.813 1.374 0 2.744-.105 4.103-.292.039.796.105 1.593.215 2.388 1.029 7.467 5.146 14.25 11.294 18.61 4.78 3.39 10.316 5.031 15.813 5.031 1.645 0 3.286-.155 4.902-.446.042.731.1 1.462.195 2.19 1.046 8.01 5.139 14.994 11.523 19.666 5.108 3.738 11.082 5.543 17.085 5.543.965 0 1.929-.057 2.892-.149-.026 1.357.049 2.726.229 4.1.969 7.393 4.819 13.886 10.841 18.284 4.795 3.501 10.368 5.197 15.9 5.197 7.864 0 15.643-3.431 20.96-9.983l5.139-6.332 24.817 18.874c5.266 4.005 11.559 6.115 18.061 6.115 1.38 0 2.77-.095 4.16-.287 7.946-1.097 14.981-5.229 19.812-11.633 3.194-4.235 5.097-9.028 5.781-13.917 4.554 2.436 9.616 3.716 14.825 3.716 1.103 0 2.213-.057 3.325-.172 8.415-.872 15.987-4.969 21.321-11.537 4.291-5.284 6.714-11.655 7.046-18.325 3.132 1.025 6.418 1.558 9.768 1.558 1.29 0 2.591-.078 3.895-.236 8.614-1.043 16.241-5.429 21.477-12.349 3.954-5.227 6.055-11.256 6.408-17.316 3.201 1.078 6.569 1.64 10.002 1.64 1.089 0 2.184-.056 3.281-.168 8.396-.862 15.95-4.945 21.271-11.497 4.001-4.927 6.374-10.796 6.934-16.971l36.973-29.479c11.239-8.917 19.57-21.228 23.708-34.94l35.229-19.495c3.618-2.005 4.929-6.569 2.925-10.193zm-430.972 94.897c-3.34-2.448-5.475-6.057-6.009-10.163-.535-4.106.604-8.142 3.205-11.364l14.354-17.774c2.522-3.124 6.11-5.075 10.103-5.495.534-.056 1.065-.084 1.596-.084 3.43 0 6.733 1.169 9.472 3.391 3.111 2.525 5.053 6.111 5.468 10.097.342 3.29-.407 6.521-2.094 9.301l-16.752 20.719c-5.184 5.073-13.358 5.758-19.343 1.372zm33.147 26.382c-2.824-2.003-4.64-4.994-5.112-8.423-.467-3.39.448-6.72 2.572-9.396.535-.564 24.71-30.57 24.71-30.57 2.086-2.58 5.052-4.191 8.351-4.537.44-.046.879-.069 1.314-.069 2.837 0 5.571.969 7.854 2.82 2.572 2.088 4.178 5.053 4.521 8.348.342 3.295-.619 6.527-2.707 9.099l-24.698 30.428c-4.106 5.06-11.489 6.071-16.805 2.3zm32.614 26.571c-3.042-2.226-4.998-5.601-5.507-9.503-.576-4.412.776-9.026 3.712-12.661l12.945-16.028c2.85-3.529 6.954-5.812 11.261-6.265.532-.056 1.062-.084 1.587-.084 3.242 0 6.311 1.061 8.796 3.078 6.29 5.105 6.846 14.88 1.238 21.789l-13.484 16.561c-5.5 6.222-14.381 7.626-20.548 3.113zm47.403 25.644c-4.024 4.957-11.214 5.889-16.368 2.125-2.674-1.953-4.383-4.836-4.813-8.12-.43-3.283.479-6.509 2.56-9.084l14.568-17.916c1.931-1.924 4.437-3.127 7.187-3.416.426-.045.852-.067 1.273-.067 2.739 0 5.379.934 7.569 2.712 2.484 2.017 4.035 4.88 4.366 8.063s-.598 6.304-2.614 8.789z"/><path d="m257.261 217.48c59.96 0 108.74-48.78 108.74-108.74s-48.78-108.74-108.74-108.74c-38.113 0-73.928 20.365-93.466 53.148-2.121 3.558-.955 8.162 2.603 10.282 3.559 2.12 8.161.956 10.282-2.603 16.848-28.267 47.724-45.827 80.581-45.827 51.688 0 93.74 42.052 93.74 93.74s-42.052 93.74-93.74 93.74-93.74-42.051-93.74-93.74c0-6.869.753-13.74 2.237-20.421.898-4.043-1.651-8.05-5.694-8.948-4.046-.901-8.051 1.65-8.948 5.694-1.722 7.749-2.595 15.714-2.595 23.675 0 59.96 48.781 108.74 108.74 108.74z"/><path d="m203.972 132.704c0 3.397 1.323 6.59 3.725 8.991l16.609 16.609c2.479 2.479 5.734 3.717 8.99 3.717s6.513-1.239 8.992-3.718l14.973-14.973 14.974 14.974c4.957 4.957 13.023 4.957 17.982 0l16.607-16.608c2.402-2.401 3.726-5.595 3.726-8.992 0-3.396-1.323-6.59-3.725-8.991l-14.974-14.973 14.973-14.973c2.402-2.401 3.726-5.595 3.726-8.992 0-3.396-1.323-6.59-3.725-8.991l-16.608-16.608c-2.402-2.402-5.596-3.725-8.992-3.725s-6.589 1.323-8.991 3.725l-14.973 14.973-14.973-14.973c-2.402-2.402-5.596-3.725-8.991-3.725-3.396 0-6.59 1.323-8.992 3.725l-16.607 16.608c-2.402 2.401-3.726 5.595-3.726 8.991 0 3.397 1.323 6.59 3.725 8.991l14.974 14.974-14.973 14.973c-2.402 2.401-3.726 5.595-3.726 8.991zm34.609-18.661c2.929-2.929 2.929-7.678 0-10.606l-18.661-18.661 13.378-13.378 18.66 18.661c2.93 2.929 7.678 2.929 10.607 0l18.66-18.661 13.378 13.378-18.661 18.661c-2.929 2.929-2.929 7.678 0 10.606l18.661 18.661-13.378 13.378-18.66-18.661c-2.93-2.929-7.678-2.929-10.607 0l-18.66 18.661-13.378-13.378z"/></g></svg>