<svg id="Capa_1" enable-background="new 0 0 512 512" height="512" viewBox="0 0 512 512" width="512" xmlns="http://www.w3.org/2000/svg"><g><path d="m392 241c0 32.523-27.935 60-61 60h-15c-24.813 0-45 20.187-45 45s20.187 45 45 45h15c20.977 0 41.94-4.414 61-12.672v72.672h120v-210c0-33.084-26.916-60-60-60s-60 26.916-60 60zm60-30c16.542 0 30 13.458 30 30v180h-60v-95.98c-14.431 7.761-41.053 35.98-91 35.98h-15c-8.271 0-15-6.729-15-15s6.729-15 15-15h15c49.855 0 91-40.499 91-90 0-16.542 13.458-30 30-30z"/><path d="m512 121c0-33.084-26.916-60-60-60s-60 26.916-60 60 26.916 60 60 60 60-26.916 60-60zm-60 30c-16.542 0-30-13.458-30-30s13.458-30 30-30 30 13.458 30 30-13.458 30-30 30z"/><path d="m120 378.328c19.06 8.258 40.023 12.672 61 12.672h15c24.813 0 45-20.187 45-45s-20.187-45-45-45h-15c-33.065 0-61-27.477-61-60 0-33.084-26.916-60-60-60s-60 26.916-60 60v210h120zm-30-53.308v95.98h-60v-180c0-16.542 13.458-30 30-30s30 13.458 30 30c0 49.453 41.102 90 91 90h15c8.271 0 15 6.729 15 15s-6.729 15-15 15h-15c-49.981 0-76.817-28.353-91-35.98z"/><path d="m120 121c0-33.084-26.916-60-60-60s-60 26.916-60 60 26.916 60 60 60 60-26.916 60-60zm-60 30c-16.542 0-30-13.458-30-30s13.458-30 30-30 30 13.458 30 30-13.458 30-30 30z"/><path d="m361 166c0-57.897-47.103-105-105-105s-105 47.103-105 105 47.103 105 105 105 105-47.103 105-105zm-105-75c15.264 0 29.47 4.594 41.329 12.457l-103.871 103.872c-7.864-11.859-12.458-26.065-12.458-41.329 0-41.355 33.645-75 75-75zm0 150c-15.264 0-29.47-4.594-41.329-12.457l103.872-103.872c7.863 11.859 12.457 26.065 12.457 41.329 0 41.355-33.645 75-75 75z"/></g></svg>