<svg height="512" viewBox="0 0 64 64" width="512" xmlns="http://www.w3.org/2000/svg"><g id="outline"><path d="m58 4a1 1 0 0 0 -.757-.97l-4-1a1.817 1.817 0 0 0 -.243-.03h-10c-4.257 0-9 2.875-9 7a1 1 0 0 0 1 1h3v5.891l-1.8 8.109h-23.2a1 1 0 0 0 -1 1v6a1 1 0 0 0 1 1h1.074l1.926 25.066a5.222 5.222 0 0 0 5 4.934h24a5.219 5.219 0 0 0 5-4.923l1.926-25.077h1.074a1 1 0 0 0 1-1v-6a1 1 0 0 0 -1-1h-3.2l-1.8-8.109v-3.477l2.414-2.414h1.586v2a2 2 0 0 1 -2 2v2a4 4 0 0 0 4-4v-2.22l3.243-.81a1 1 0 0 0 .757-.97zm-24 22h10v14h-2v-9h-2v9h-2v-5h-2v5h-2zm12.2-9 1.555 7h-9.508l1.553-7zm-6.2-2v-2h6v2zm-26 15v-4h2v2h2v-2h2v2h2v-2h2v2h2v-2h2v2h2v-2h2v4zm31 30h-24a3.11 3.11 0 0 1 -2.739-2h29.479a3.112 3.112 0 0 1 -2.74 2zm3.074-4h-30.148l-1.846-24h15.92v9a1 1 0 0 0 1 1h12a1 1 0 0 0 1-1v-9h3.92zm1.926-28v-2h2v4h-6v-4h2v2zm2-20h-2a1 1 0 0 0 -.707.293l-2.707 2.707h-6.586v-2a1 1 0 0 0 -1-1h-2.831c.731-2.166 3.705-4 6.831-4h9zm4-.781-2 .5v-3.438l2 .5z"/><path d="m20 14.977a4.987 4.987 0 0 0 9.253 2.6 3.951 3.951 0 0 0 1.747.4 4 4 0 0 0 1-7.877c0-.042 0-.084 0-.126a4 4 0 0 0 -8 0v.1a5.009 5.009 0 0 0 -4 4.903zm4.968-3 .187.016a2.991 2.991 0 0 1 2.095 1l1.5-1.322a5.006 5.006 0 0 0 -2.74-1.588c0-.035-.01-.071-.01-.105a2 2 0 0 1 4 0 1.971 1.971 0 0 1 -.129.677 1 1 0 0 0 .94 1.345c.043 0 .144-.014.189-.018a2 2 0 0 1 0 4 1.98 1.98 0 0 1 -1.441-.622 1 1 0 0 0 -1.686.423 2.992 2.992 0 1 1 -2.905-3.8z"/><path d="m13 19a3 3 0 1 0 3-3 3 3 0 0 0 -3 3zm3-1a1 1 0 1 1 -1 1 1 1 0 0 1 1-1z"/><path d="m10 7a4 4 0 1 0 4 4 4 4 0 0 0 -4-4zm0 6a2 2 0 1 1 2-2 2 2 0 0 1 -2 2z"/><path d="m18 2a3 3 0 1 0 3 3 3 3 0 0 0 -3-3zm0 4a1 1 0 1 1 1-1 1 1 0 0 1 -1 1z"/><path d="m20.992 44.876-1.984.248 1 8a1 1 0 0 0 .992.876h3v-2h-2.117z"/><path d="m26 52h2v2h-2z"/><path d="m30 52h2v2h-2z"/></g></svg>