<?xml version="1.0"?>
<svg xmlns="http://www.w3.org/2000/svg" viewBox="0 0 64 64" width="512" height="512"><g id="coronavirus-virus-covid19-handsake-hand"><path d="M32,2A30,30,0,1,0,62,32,30.037,30.037,0,0,0,32,2ZM59.8,28.68,48.26,17.15l4.22-4.22A27.953,27.953,0,0,1,59.8,28.68ZM46.14,43.31l2.54,2.54a.031.031,0,0,0,.01.02,1.949,1.949,0,0,1,.59,1.41,1.992,1.992,0,0,1-.6,1.42,2.048,2.048,0,0,1-2.82-.01l-2.55-2.55a1,1,0,0,0-1.41,0,1.008,1.008,0,0,0,0,1.42l1.75,1.75a2.073,2.073,0,0,1,.33,2.62,1.994,1.994,0,0,1-3.06.3l-1.57-1.56a3.632,3.632,0,0,0,.12-.92,3.962,3.962,0,0,0-3.67-3.98,3.975,3.975,0,0,0,.13-.97,3.984,3.984,0,0,0-3.22-3.93,3.975,3.975,0,0,0,.41-1.74,3.915,3.915,0,0,0-1.18-2.82,4.031,4.031,0,0,0-1.81-1.03l8.23-8.23L51.08,39.77c.01,0,.01,0,.01.01s.01,0,.01.01l2.44,2.44a2,2,0,0,1,.02,2.83,2,2,0,0,1-2.84,0L47.56,41.9a1.008,1.008,0,0,0-1.42,0A1,1,0,0,0,46.14,43.31ZM27.77,17.84l1.45,1.39-3.51,3.5a4,4,0,1,0,5.65,5.66l3.47-3.46a1,1,0,0,1,1.41,0l.71.71-9.64,9.64a4.072,4.072,0,0,0-1.03-1.81,4,4,0,0,0-5.65,0l-4.19,4.19L12.2,33.41ZM10.79,32,6.54,27.76,22.1,12.2l4.24,4.24Zm28.99-9.19-1.42,1.41-.7-.71a3.021,3.021,0,0,0-4.25,0l-3.46,3.47a2.01,2.01,0,0,1-3.42-1.42,1.949,1.949,0,0,1,.59-1.41l4.05-4.05,4.76-1.14Zm-2.12-4.95,4.24-4.24,3.54,3.53-4.25,4.24ZM16.38,40.55l5.66-5.66a1.992,1.992,0,0,1,2.82-.01,1.992,1.992,0,0,1,.01,2.84l-5.66,5.66a2.013,2.013,0,0,1-2.83.01,2.041,2.041,0,0,1-.59-1.42A2.006,2.006,0,0,1,16.38,40.55Zm4.24,4.24,7.07-7.07a2.016,2.016,0,0,1,2.84.01,1.968,1.968,0,0,1-.01,2.82l-1.41,1.41-5.66,5.66a2,2,0,0,1-3.42-1.41A2.024,2.024,0,0,1,20.62,44.79Zm4.25,4.24,5.66-5.66a2.025,2.025,0,0,1,1.41-.58,1.943,1.943,0,0,1,1.4.58,2.047,2.047,0,0,1,.59,1.43,2.016,2.016,0,0,1-.58,1.41L27.7,51.86a1.986,1.986,0,0,1-2.83,0,1.992,1.992,0,0,1,0-2.83Zm4.94,3.54,4.25-4.25a2,2,0,0,1,2.82,0,2.029,2.029,0,0,1,.59,1.43,1.912,1.912,0,0,1-.23.9,3.918,3.918,0,0,1-.36.51l-4.23,4.23a2.016,2.016,0,0,1-2.84,0,1.981,1.981,0,0,1-.58-1.41A2.016,2.016,0,0,1,29.81,52.57Zm8.55-.07.35.35a2.086,2.086,0,0,1,.33,2.61,2,2,0,0,1-1.66.89,1.957,1.957,0,0,1-1.41-.58l-.43-.44ZM51.8,37.66,39.78,25.64l1.41-1.42L53.21,36.24ZM42.61,22.81l4.24-4.25L58.87,30.59l-4.24,4.24ZM32,4a27.918,27.918,0,0,1,19.07,7.52l-4.22,4.22-4.24-4.25a1.008,1.008,0,0,0-1.42,0l-5.45,5.46L30.93,18.1l-2.48-2.38-5.64-5.64a1.027,1.027,0,0,0-1.42,0L4.45,27.02A28.045,28.045,0,0,1,32,4ZM4,32a27.8,27.8,0,0,1,.26-3.78,1,1,0,0,0,.16.24L15.03,39.07l-.07.07a4,4,0,0,0,0,5.65,3.92,3.92,0,0,0,1.81,1.02l-5.25,5.26A27.918,27.918,0,0,1,4,32ZM32,60a27.918,27.918,0,0,1-19.07-7.52l5.25-5.25a4.072,4.072,0,0,0,1.03,1.81,3.976,3.976,0,0,0,2.82,1.17,2.66,2.66,0,0,0,.28-.03,2.6,2.6,0,0,0-.03.26,3.995,3.995,0,0,0,4,4,4.056,4.056,0,0,0,.98-.13,3.99,3.99,0,0,0,6.8,2.5l.06-.06.43.43a3.992,3.992,0,0,0,6.12-.57,3.71,3.71,0,0,0,.67-1.93,4.072,4.072,0,0,0,.99.13,3.961,3.961,0,0,0,3.29-1.74,3.65,3.65,0,0,0,.67-1.93,4.068,4.068,0,0,0,.98.14,3.972,3.972,0,0,0,3.98-3.74,3.721,3.721,0,0,0,.88.11h.01a4,4,0,0,0,2.82-6.84l-1.74-1.74,6.77-6.78A28.027,28.027,0,0,1,32,60Z"/></g></svg>
