<svg height="512" viewBox="0 0 64 64" width="512" xmlns="http://www.w3.org/2000/svg"><g id="social_distancing-protection-protect-face_shield-face_mask" data-name="social distancing-protection-protect-face shield-face mask"><path d="m9.05 34.74a6 6 0 0 0 11.9 0l-5.95-1.7z"/><path d="m21 42h-12a5 5 0 0 0 -5 5v13h22v-13a5 5 0 0 0 -5-5z"/><path d="m21 29.58-6-3.43-6 3.43v3.09l5.73-1.63a.991.991 0 0 1 .54 0l5.73 1.63z"/><path d="m14.5 24.13a1.044 1.044 0 0 1 1 0l6.77 3.87h.73a8 8 0 0 0 -16 0h.73z"/><path d="m55 29.48-4.15-3.32-7.85 3.49v3.02l5.73-1.63a.991.991 0 0 1 .54 0l5.73 1.63z"/><path d="m43.05 34.74a6 6 0 0 0 11.9 0l-5.95-1.7z"/><path d="m41 28h.79l8.8-3.91a.985.985 0 0 1 1.03.13l4.73 3.78h.65a8 8 0 0 0 -16 0z"/><path d="m55 42h-12a5 5 0 0 0 -5 5v13h22v-13a5 5 0 0 0 -5-5z"/><path d="m19.293 11.707 1.414-1.414-2.293-2.293h27.172l-2.293 2.293 1.414 1.414 4-4a1 1 0 0 0 0-1.414l-4-4-1.414 1.414 2.293 2.293h-27.172l2.293-2.293-1.414-1.414-4 4a1 1 0 0 0 0 1.414z"/><path d="m30 10h-6v2h5v2h-4a1 1 0 0 0 -1 1v4a1 1 0 0 0 1 1h6v-2h-5v-2h4a1 1 0 0 0 1-1v-4a1 1 0 0 0 -1-1z"/><path d="m39 20h2v-9a1 1 0 0 0 -1.8-.6l-2.2 2.933-2.2-2.933a1 1 0 0 0 -1.8.6v9h2v-6l1.2 1.6a1.036 1.036 0 0 0 1.6 0l1.2-1.6z"/><path d="m57 31v3h1a2 2 0 0 0 0-4h-1z"/><path d="m38 32a2 2 0 0 0 2 2h1v-4h-1a2 2 0 0 0 -2 2z"/><path d="m24 30h-1v4h1a2 2 0 0 0 0-4z"/><path d="m6 34h1v-4h-1a2 2 0 0 0 0 4z"/></g></svg>