<?xml version="1.0"?>
<svg xmlns="http://www.w3.org/2000/svg" viewBox="0 0 512 512" width="512" height="512"><g id="Outline"><path d="M474.8,160H496v16H472a8,8,0,0,1-4.994-1.75l-4.53-3.62A336.36,336.36,0,0,0,387.3,125.175l-70.35-27.9c-.084-.033-.168-.068-.252-.1a13.915,13.915,0,0,0-13.655,24.078l61.33,40.052a7.991,7.991,0,0,1,3.464,5.114h0a102.646,102.646,0,0,0,16.917,36.268c16.772,22.478,40.477,32.351,70.445,29.357l1.592,15.92q-6.115.612-11.773.6c-37.933,0-60.724-19.527-73.463-36.817A119.7,119.7,0,0,1,353.835,176H219V160H333.118l-38.942-25.432c-.072-.047-.145-.095-.215-.145a29.918,29.918,0,0,1-6.77-42.455,29.895,29.895,0,0,1,35.776-9.518l70.362,27.9c.087.034.173.07.258.107a352.3,352.3,0,0,1,78.882,47.673ZM177.5,112l33.673,161.632,15.664-3.264L191.989,103.121A88.1,88.1,0,0,0,104,16H16V32h88a72.108,72.108,0,0,1,71.559,64H126.987A32.056,32.056,0,0,0,96,72H16V88H96a16.006,16.006,0,0,1,15.968,15.367L72.155,302.431l15.69,3.138L126.559,112ZM408.469,286.13a352.5,352.5,0,0,0-78.879-47.667c-.059-.025-.117-.051-.177-.074L294.264,224H312V208H234.333v16h6.754c-.506.578-1,1.171-1.469,1.795a29.915,29.915,0,0,0,6.635,42.353L272.3,288H128a31.984,31.984,0,0,0-24.485,52.581A31.995,31.995,0,0,0,120,400H248V384H120a16,16,0,0,1,0-32H248V336H128a16,16,0,0,1,0-32H296a8,8,0,0,0,4.849-14.363l-45.017-34.305c-.086-.065-.173-.129-.261-.19A13.914,13.914,0,0,1,269.126,231c.059.025.117.051.177.074l53.961,22.089a336.52,336.52,0,0,1,75.21,45.465C401.305,300.889,404.1,304,408,304h88V288H410.807Zm3.953,162.715C393.688,458.212,345.846,480,306.334,480H160a16,16,0,0,1,0-32h88V432H136a16.019,16.019,0,0,1-16-16H104a32.044,32.044,0,0,0,28.411,31.8A31.99,31.99,0,0,0,160,496H306.334c17.583,0,55.33-4.184,111.546-32H496V448H416A7.994,7.994,0,0,0,412.422,448.845Zm-267.435-197.4,6-108-15.974-.886-6,108Zm16.038-65.8,7,87,15.95-1.284-7-87ZM72,336a24,24,0,1,1-24-24A24.028,24.028,0,0,1,72,336Zm-16,0a8,8,0,1,0-8,8A8.009,8.009,0,0,0,56,336ZM232,144a24,24,0,1,1,24-24A24.028,24.028,0,0,1,232,144Zm0-16a8,8,0,1,0-8-8A8.009,8.009,0,0,0,232,128Zm80,288a24,24,0,1,1,24-24A24.028,24.028,0,0,1,312,416Zm0-16a8,8,0,1,0-8-8A8.009,8.009,0,0,0,312,400Z"/></g></svg>
